<mxfile host="app.diagrams.net" agent="Mozilla/5.0 (Windows NT 10.0; Win64; x64) AppleWebKit/537.36 (KHTML, like Gecko) Chrome/130.0.0.0 Safari/537.36" version="24.8.3">
  <diagram id="R2lEEEUBdFMjLlhIrx00" name="Page-1">
    <mxGraphModel dx="1073" dy="653" grid="1" gridSize="10" guides="1" tooltips="1" connect="1" arrows="1" fold="1" page="1" pageScale="1" pageWidth="850" pageHeight="1100" math="0" shadow="0" extFonts="Permanent Marker^https://fonts.googleapis.com/css?family=Permanent+Marker">
      <root>
        <mxCell id="0" />
        <mxCell id="1" parent="0" />
        <mxCell id="vouigOJlTUPdxGMM5KaJ-5" value="Sales Office" style="whiteSpace=wrap;html=1;align=center;" vertex="1" parent="1">
          <mxGeometry x="200" y="210" width="100" height="40" as="geometry" />
        </mxCell>
        <mxCell id="vouigOJlTUPdxGMM5KaJ-6" value="Employee" style="whiteSpace=wrap;html=1;align=center;" vertex="1" parent="1">
          <mxGeometry x="620" y="210" width="100" height="40" as="geometry" />
        </mxCell>
        <mxCell id="vouigOJlTUPdxGMM5KaJ-7" value="Property" style="whiteSpace=wrap;html=1;align=center;" vertex="1" parent="1">
          <mxGeometry x="200" y="410" width="100" height="40" as="geometry" />
        </mxCell>
        <mxCell id="vouigOJlTUPdxGMM5KaJ-9" value="assigned" style="shape=rhombus;perimeter=rhombusPerimeter;whiteSpace=wrap;html=1;align=center;" vertex="1" parent="1">
          <mxGeometry x="430" y="170" width="60" height="55" as="geometry" />
        </mxCell>
        <mxCell id="vouigOJlTUPdxGMM5KaJ-15" value="&lt;font style=&quot;font-size: 9px;&quot;&gt;Location&lt;/font&gt;" style="ellipse;whiteSpace=wrap;html=1;align=center;" vertex="1" parent="1">
          <mxGeometry x="180" y="180" width="70" height="20" as="geometry" />
        </mxCell>
        <mxCell id="vouigOJlTUPdxGMM5KaJ-16" value="&lt;font style=&quot;font-size: 9px;&quot;&gt;City&lt;/font&gt;" style="ellipse;whiteSpace=wrap;html=1;align=center;" vertex="1" parent="1">
          <mxGeometry x="150" y="140" width="50" height="20" as="geometry" />
        </mxCell>
        <mxCell id="vouigOJlTUPdxGMM5KaJ-17" value="&lt;font style=&quot;font-size: 9px;&quot;&gt;Address&lt;/font&gt;" style="ellipse;whiteSpace=wrap;html=1;align=center;" vertex="1" parent="1">
          <mxGeometry x="80" y="140" width="60" height="20" as="geometry" />
        </mxCell>
        <mxCell id="vouigOJlTUPdxGMM5KaJ-19" value="&lt;font style=&quot;font-size: 9px;&quot;&gt;State&lt;/font&gt;" style="ellipse;whiteSpace=wrap;html=1;align=center;" vertex="1" parent="1">
          <mxGeometry x="210" y="140" width="50" height="20" as="geometry" />
        </mxCell>
        <mxCell id="vouigOJlTUPdxGMM5KaJ-20" value="&lt;font style=&quot;font-size: 9px;&quot;&gt;Zip_Code&lt;/font&gt;" style="ellipse;whiteSpace=wrap;html=1;align=center;" vertex="1" parent="1">
          <mxGeometry x="270" y="140" width="50" height="20" as="geometry" />
        </mxCell>
        <mxCell id="vouigOJlTUPdxGMM5KaJ-22" value="" style="endArrow=none;html=1;rounded=0;exitX=0.5;exitY=1;exitDx=0;exitDy=0;entryX=0.5;entryY=0;entryDx=0;entryDy=0;" edge="1" parent="1" source="vouigOJlTUPdxGMM5KaJ-20" target="vouigOJlTUPdxGMM5KaJ-15">
          <mxGeometry relative="1" as="geometry">
            <mxPoint x="390" y="300" as="sourcePoint" />
            <mxPoint x="550" y="300" as="targetPoint" />
          </mxGeometry>
        </mxCell>
        <mxCell id="vouigOJlTUPdxGMM5KaJ-23" value="" style="endArrow=none;html=1;rounded=0;exitX=0.5;exitY=1;exitDx=0;exitDy=0;entryX=0.5;entryY=0;entryDx=0;entryDy=0;" edge="1" parent="1" source="vouigOJlTUPdxGMM5KaJ-19" target="vouigOJlTUPdxGMM5KaJ-15">
          <mxGeometry relative="1" as="geometry">
            <mxPoint x="250" y="160" as="sourcePoint" />
            <mxPoint x="170" y="180" as="targetPoint" />
          </mxGeometry>
        </mxCell>
        <mxCell id="vouigOJlTUPdxGMM5KaJ-24" value="" style="endArrow=none;html=1;rounded=0;exitX=0.5;exitY=1;exitDx=0;exitDy=0;entryX=0.5;entryY=0;entryDx=0;entryDy=0;" edge="1" parent="1" source="vouigOJlTUPdxGMM5KaJ-16" target="vouigOJlTUPdxGMM5KaJ-15">
          <mxGeometry relative="1" as="geometry">
            <mxPoint x="215" y="165" as="sourcePoint" />
            <mxPoint x="135" y="185" as="targetPoint" />
          </mxGeometry>
        </mxCell>
        <mxCell id="vouigOJlTUPdxGMM5KaJ-25" value="" style="endArrow=none;html=1;rounded=0;exitX=0.5;exitY=0;exitDx=0;exitDy=0;entryX=0.5;entryY=1;entryDx=0;entryDy=0;" edge="1" parent="1" source="vouigOJlTUPdxGMM5KaJ-15" target="vouigOJlTUPdxGMM5KaJ-17">
          <mxGeometry relative="1" as="geometry">
            <mxPoint x="190" y="170" as="sourcePoint" />
            <mxPoint x="110" y="190" as="targetPoint" />
          </mxGeometry>
        </mxCell>
        <mxCell id="vouigOJlTUPdxGMM5KaJ-26" value="" style="endArrow=none;html=1;rounded=0;exitX=0.5;exitY=1;exitDx=0;exitDy=0;entryX=0.25;entryY=0;entryDx=0;entryDy=0;" edge="1" parent="1" source="vouigOJlTUPdxGMM5KaJ-15" target="vouigOJlTUPdxGMM5KaJ-5">
          <mxGeometry relative="1" as="geometry">
            <mxPoint x="420" y="255" as="sourcePoint" />
            <mxPoint x="340" y="275" as="targetPoint" />
          </mxGeometry>
        </mxCell>
        <mxCell id="vouigOJlTUPdxGMM5KaJ-27" value="" style="endArrow=none;html=1;rounded=0;exitX=0.5;exitY=1;exitDx=0;exitDy=0;entryX=1;entryY=0;entryDx=0;entryDy=0;" edge="1" parent="1" source="vouigOJlTUPdxGMM5KaJ-28" target="vouigOJlTUPdxGMM5KaJ-5">
          <mxGeometry relative="1" as="geometry">
            <mxPoint x="305" y="200" as="sourcePoint" />
            <mxPoint x="240" y="275" as="targetPoint" />
          </mxGeometry>
        </mxCell>
        <mxCell id="vouigOJlTUPdxGMM5KaJ-28" value="&lt;font style=&quot;font-size: 9px;&quot;&gt;Office_Number&lt;/font&gt;" style="ellipse;whiteSpace=wrap;html=1;align=center;fontStyle=4;" vertex="1" parent="1">
          <mxGeometry x="260" y="180" width="70" height="20" as="geometry" />
        </mxCell>
        <mxCell id="vouigOJlTUPdxGMM5KaJ-30" value="&lt;font style=&quot;font-size: 9px;&quot;&gt;Employee_Name&lt;/font&gt;" style="ellipse;whiteSpace=wrap;html=1;align=center;" vertex="1" parent="1">
          <mxGeometry x="580" y="170" width="80" height="20" as="geometry" />
        </mxCell>
        <mxCell id="vouigOJlTUPdxGMM5KaJ-31" value="&lt;font style=&quot;font-size: 9px;&quot;&gt;Employee_ID&lt;/font&gt;" style="ellipse;whiteSpace=wrap;html=1;align=center;fontStyle=4;" vertex="1" parent="1">
          <mxGeometry x="680" y="170" width="70" height="20" as="geometry" />
        </mxCell>
        <mxCell id="vouigOJlTUPdxGMM5KaJ-33" value="" style="endArrow=none;html=1;rounded=0;exitX=0.75;exitY=0;exitDx=0;exitDy=0;entryX=0.5;entryY=1;entryDx=0;entryDy=0;" edge="1" parent="1" source="vouigOJlTUPdxGMM5KaJ-6" target="vouigOJlTUPdxGMM5KaJ-31">
          <mxGeometry relative="1" as="geometry">
            <mxPoint x="610" y="180" as="sourcePoint" />
            <mxPoint x="770" y="180" as="targetPoint" />
          </mxGeometry>
        </mxCell>
        <mxCell id="vouigOJlTUPdxGMM5KaJ-34" value="" style="endArrow=none;html=1;rounded=0;exitX=0.25;exitY=0;exitDx=0;exitDy=0;entryX=0.5;entryY=1;entryDx=0;entryDy=0;" edge="1" parent="1" source="vouigOJlTUPdxGMM5KaJ-6" target="vouigOJlTUPdxGMM5KaJ-30">
          <mxGeometry relative="1" as="geometry">
            <mxPoint x="625" y="210" as="sourcePoint" />
            <mxPoint x="660" y="190" as="targetPoint" />
          </mxGeometry>
        </mxCell>
        <mxCell id="vouigOJlTUPdxGMM5KaJ-35" value="&lt;font style=&quot;font-size: 9px;&quot;&gt;Location&lt;/font&gt;" style="ellipse;whiteSpace=wrap;html=1;align=center;" vertex="1" parent="1">
          <mxGeometry x="150" y="380" width="70" height="20" as="geometry" />
        </mxCell>
        <mxCell id="vouigOJlTUPdxGMM5KaJ-36" value="&lt;font style=&quot;font-size: 9px;&quot;&gt;City&lt;/font&gt;" style="ellipse;whiteSpace=wrap;html=1;align=center;" vertex="1" parent="1">
          <mxGeometry x="120" y="340" width="50" height="20" as="geometry" />
        </mxCell>
        <mxCell id="vouigOJlTUPdxGMM5KaJ-37" value="&lt;font style=&quot;font-size: 9px;&quot;&gt;Address&lt;/font&gt;" style="ellipse;whiteSpace=wrap;html=1;align=center;" vertex="1" parent="1">
          <mxGeometry x="50" y="340" width="60" height="20" as="geometry" />
        </mxCell>
        <mxCell id="vouigOJlTUPdxGMM5KaJ-38" value="&lt;font style=&quot;font-size: 9px;&quot;&gt;State&lt;/font&gt;" style="ellipse;whiteSpace=wrap;html=1;align=center;" vertex="1" parent="1">
          <mxGeometry x="180" y="340" width="50" height="20" as="geometry" />
        </mxCell>
        <mxCell id="vouigOJlTUPdxGMM5KaJ-39" value="&lt;font style=&quot;font-size: 9px;&quot;&gt;Zip_Code&lt;/font&gt;" style="ellipse;whiteSpace=wrap;html=1;align=center;" vertex="1" parent="1">
          <mxGeometry x="30" y="370" width="50" height="20" as="geometry" />
        </mxCell>
        <mxCell id="vouigOJlTUPdxGMM5KaJ-40" value="" style="endArrow=none;html=1;rounded=0;exitX=0.5;exitY=1;exitDx=0;exitDy=0;entryX=0.5;entryY=0;entryDx=0;entryDy=0;" edge="1" source="vouigOJlTUPdxGMM5KaJ-39" target="vouigOJlTUPdxGMM5KaJ-35" parent="1">
          <mxGeometry relative="1" as="geometry">
            <mxPoint x="360" y="500" as="sourcePoint" />
            <mxPoint x="520" y="500" as="targetPoint" />
          </mxGeometry>
        </mxCell>
        <mxCell id="vouigOJlTUPdxGMM5KaJ-41" value="" style="endArrow=none;html=1;rounded=0;exitX=0.5;exitY=1;exitDx=0;exitDy=0;entryX=0.5;entryY=0;entryDx=0;entryDy=0;" edge="1" source="vouigOJlTUPdxGMM5KaJ-38" target="vouigOJlTUPdxGMM5KaJ-35" parent="1">
          <mxGeometry relative="1" as="geometry">
            <mxPoint x="220" y="360" as="sourcePoint" />
            <mxPoint x="140" y="380" as="targetPoint" />
          </mxGeometry>
        </mxCell>
        <mxCell id="vouigOJlTUPdxGMM5KaJ-42" value="" style="endArrow=none;html=1;rounded=0;exitX=0.5;exitY=1;exitDx=0;exitDy=0;entryX=0.5;entryY=0;entryDx=0;entryDy=0;" edge="1" source="vouigOJlTUPdxGMM5KaJ-36" target="vouigOJlTUPdxGMM5KaJ-35" parent="1">
          <mxGeometry relative="1" as="geometry">
            <mxPoint x="185" y="365" as="sourcePoint" />
            <mxPoint x="105" y="385" as="targetPoint" />
          </mxGeometry>
        </mxCell>
        <mxCell id="vouigOJlTUPdxGMM5KaJ-43" value="" style="endArrow=none;html=1;rounded=0;exitX=0.5;exitY=0;exitDx=0;exitDy=0;entryX=0.5;entryY=1;entryDx=0;entryDy=0;" edge="1" source="vouigOJlTUPdxGMM5KaJ-35" target="vouigOJlTUPdxGMM5KaJ-37" parent="1">
          <mxGeometry relative="1" as="geometry">
            <mxPoint x="160" y="370" as="sourcePoint" />
            <mxPoint x="80" y="390" as="targetPoint" />
          </mxGeometry>
        </mxCell>
        <mxCell id="vouigOJlTUPdxGMM5KaJ-44" value="" style="endArrow=none;html=1;rounded=0;exitX=0.5;exitY=1;exitDx=0;exitDy=0;entryX=0.25;entryY=0;entryDx=0;entryDy=0;" edge="1" source="vouigOJlTUPdxGMM5KaJ-35" parent="1" target="vouigOJlTUPdxGMM5KaJ-7">
          <mxGeometry relative="1" as="geometry">
            <mxPoint x="410" y="445" as="sourcePoint" />
            <mxPoint x="215" y="400" as="targetPoint" />
          </mxGeometry>
        </mxCell>
        <mxCell id="vouigOJlTUPdxGMM5KaJ-45" value="" style="endArrow=none;html=1;rounded=0;exitX=0.5;exitY=1;exitDx=0;exitDy=0;entryX=0.75;entryY=0;entryDx=0;entryDy=0;" edge="1" source="vouigOJlTUPdxGMM5KaJ-46" parent="1" target="vouigOJlTUPdxGMM5KaJ-7">
          <mxGeometry relative="1" as="geometry">
            <mxPoint x="295" y="390" as="sourcePoint" />
            <mxPoint x="290" y="400" as="targetPoint" />
          </mxGeometry>
        </mxCell>
        <mxCell id="vouigOJlTUPdxGMM5KaJ-46" value="&lt;font style=&quot;font-size: 9px;&quot;&gt;Property_ID&lt;/font&gt;" style="ellipse;whiteSpace=wrap;html=1;align=center;fontStyle=4;" vertex="1" parent="1">
          <mxGeometry x="260" y="380" width="70" height="20" as="geometry" />
        </mxCell>
        <mxCell id="vouigOJlTUPdxGMM5KaJ-47" value="&lt;font style=&quot;font-size: 9px;&quot;&gt;Owner_Name&lt;/font&gt;" style="ellipse;whiteSpace=wrap;html=1;align=center;" vertex="1" parent="1">
          <mxGeometry x="560" y="370" width="80" height="20" as="geometry" />
        </mxCell>
        <mxCell id="vouigOJlTUPdxGMM5KaJ-49" value="" style="endArrow=none;html=1;rounded=0;exitX=0.75;exitY=0;exitDx=0;exitDy=0;entryX=0.5;entryY=1;entryDx=0;entryDy=0;" edge="1" target="vouigOJlTUPdxGMM5KaJ-84" parent="1" source="vouigOJlTUPdxGMM5KaJ-59">
          <mxGeometry relative="1" as="geometry">
            <mxPoint x="675" y="410" as="sourcePoint" />
            <mxPoint x="695" y="390" as="targetPoint" />
          </mxGeometry>
        </mxCell>
        <mxCell id="vouigOJlTUPdxGMM5KaJ-50" value="" style="endArrow=none;html=1;rounded=0;exitX=0.25;exitY=0;exitDx=0;exitDy=0;entryX=0.5;entryY=1;entryDx=0;entryDy=0;" edge="1" target="vouigOJlTUPdxGMM5KaJ-47" parent="1" source="vouigOJlTUPdxGMM5KaJ-59">
          <mxGeometry relative="1" as="geometry">
            <mxPoint x="625" y="410" as="sourcePoint" />
            <mxPoint x="640" y="390" as="targetPoint" />
          </mxGeometry>
        </mxCell>
        <mxCell id="vouigOJlTUPdxGMM5KaJ-52" value="" style="endArrow=none;html=1;rounded=0;exitX=1;exitY=0.5;exitDx=0;exitDy=0;entryX=0;entryY=0.5;entryDx=0;entryDy=0;" edge="1" parent="1" source="vouigOJlTUPdxGMM5KaJ-9" target="vouigOJlTUPdxGMM5KaJ-6">
          <mxGeometry relative="1" as="geometry">
            <mxPoint x="470" y="260" as="sourcePoint" />
            <mxPoint x="600" y="230" as="targetPoint" />
          </mxGeometry>
        </mxCell>
        <mxCell id="vouigOJlTUPdxGMM5KaJ-53" value="Manage" style="shape=rhombus;perimeter=rhombusPerimeter;whiteSpace=wrap;html=1;align=center;" vertex="1" parent="1">
          <mxGeometry x="430" y="253" width="60" height="50" as="geometry" />
        </mxCell>
        <mxCell id="vouigOJlTUPdxGMM5KaJ-55" value="" style="endArrow=none;html=1;rounded=0;exitX=1;exitY=0.5;exitDx=0;exitDy=0;entryX=0;entryY=0.5;entryDx=0;entryDy=0;" edge="1" parent="1" source="vouigOJlTUPdxGMM5KaJ-53" target="vouigOJlTUPdxGMM5KaJ-6">
          <mxGeometry relative="1" as="geometry">
            <mxPoint x="470" y="338" as="sourcePoint" />
            <mxPoint x="620" y="243" as="targetPoint" />
          </mxGeometry>
        </mxCell>
        <mxCell id="vouigOJlTUPdxGMM5KaJ-59" value="Owner" style="shape=ext;margin=3;double=1;whiteSpace=wrap;html=1;align=center;" vertex="1" parent="1">
          <mxGeometry x="600" y="410" width="100" height="40" as="geometry" />
        </mxCell>
        <mxCell id="vouigOJlTUPdxGMM5KaJ-63" value="" style="endArrow=none;html=1;rounded=0;exitX=1;exitY=0.5;exitDx=0;exitDy=0;entryX=0;entryY=0.5;entryDx=0;entryDy=0;" edge="1" parent="1" source="vouigOJlTUPdxGMM5KaJ-5" target="vouigOJlTUPdxGMM5KaJ-9">
          <mxGeometry relative="1" as="geometry">
            <mxPoint x="310" y="260" as="sourcePoint" />
            <mxPoint x="470" y="260" as="targetPoint" />
          </mxGeometry>
        </mxCell>
        <mxCell id="vouigOJlTUPdxGMM5KaJ-64" value="1" style="resizable=0;html=1;whiteSpace=wrap;align=left;verticalAlign=bottom;" connectable="0" vertex="1" parent="vouigOJlTUPdxGMM5KaJ-63">
          <mxGeometry x="-1" relative="1" as="geometry" />
        </mxCell>
        <mxCell id="vouigOJlTUPdxGMM5KaJ-65" value="1..*" style="resizable=0;html=1;whiteSpace=wrap;align=right;verticalAlign=bottom;" connectable="0" vertex="1" parent="vouigOJlTUPdxGMM5KaJ-63">
          <mxGeometry x="1" relative="1" as="geometry">
            <mxPoint x="189" y="29" as="offset" />
          </mxGeometry>
        </mxCell>
        <mxCell id="vouigOJlTUPdxGMM5KaJ-88" value="1..*" style="resizable=0;html=1;whiteSpace=wrap;align=right;verticalAlign=bottom;" connectable="0" vertex="1" parent="vouigOJlTUPdxGMM5KaJ-63">
          <mxGeometry x="1" relative="1" as="geometry">
            <mxPoint x="-110" y="236" as="offset" />
          </mxGeometry>
        </mxCell>
        <mxCell id="vouigOJlTUPdxGMM5KaJ-66" value="" style="endArrow=none;html=1;rounded=0;exitX=1;exitY=0.5;exitDx=0;exitDy=0;entryX=0;entryY=0.5;entryDx=0;entryDy=0;" edge="1" parent="1" source="vouigOJlTUPdxGMM5KaJ-5" target="vouigOJlTUPdxGMM5KaJ-53">
          <mxGeometry relative="1" as="geometry">
            <mxPoint x="300" y="243" as="sourcePoint" />
            <mxPoint x="470" y="313" as="targetPoint" />
          </mxGeometry>
        </mxCell>
        <mxCell id="vouigOJlTUPdxGMM5KaJ-68" value="1" style="resizable=0;html=1;whiteSpace=wrap;align=right;verticalAlign=bottom;" connectable="0" vertex="1" parent="vouigOJlTUPdxGMM5KaJ-66">
          <mxGeometry x="1" relative="1" as="geometry">
            <mxPoint x="185" y="-27" as="offset" />
          </mxGeometry>
        </mxCell>
        <mxCell id="vouigOJlTUPdxGMM5KaJ-69" value="1" style="resizable=0;html=1;whiteSpace=wrap;align=left;verticalAlign=bottom;" connectable="0" vertex="1" parent="vouigOJlTUPdxGMM5KaJ-66">
          <mxGeometry x="-1" relative="1" as="geometry">
            <mxPoint x="3" y="27" as="offset" />
          </mxGeometry>
        </mxCell>
        <mxCell id="vouigOJlTUPdxGMM5KaJ-76" value="1" style="resizable=0;html=1;whiteSpace=wrap;align=left;verticalAlign=bottom;" connectable="0" vertex="1" parent="vouigOJlTUPdxGMM5KaJ-66">
          <mxGeometry x="-1" relative="1" as="geometry">
            <mxPoint x="-60" y="39" as="offset" />
          </mxGeometry>
        </mxCell>
        <mxCell id="vouigOJlTUPdxGMM5KaJ-78" value="0..*" style="resizable=0;html=1;whiteSpace=wrap;align=left;verticalAlign=bottom;" connectable="0" vertex="1" parent="vouigOJlTUPdxGMM5KaJ-66">
          <mxGeometry x="-1" relative="1" as="geometry">
            <mxPoint x="-71" y="180" as="offset" />
          </mxGeometry>
        </mxCell>
        <mxCell id="vouigOJlTUPdxGMM5KaJ-87" value="0..*" style="resizable=0;html=1;whiteSpace=wrap;align=left;verticalAlign=bottom;" connectable="0" vertex="1" parent="vouigOJlTUPdxGMM5KaJ-66">
          <mxGeometry x="-1" relative="1" as="geometry">
            <mxPoint x="278" y="201" as="offset" />
          </mxGeometry>
        </mxCell>
        <mxCell id="vouigOJlTUPdxGMM5KaJ-70" value="" style="endArrow=none;html=1;rounded=0;exitX=0.995;exitY=0.616;exitDx=0;exitDy=0;exitPerimeter=0;entryX=0.126;entryY=0.659;entryDx=0;entryDy=0;entryPerimeter=0;" edge="1" parent="1" source="vouigOJlTUPdxGMM5KaJ-5" target="vouigOJlTUPdxGMM5KaJ-53">
          <mxGeometry relative="1" as="geometry">
            <mxPoint x="350" y="230" as="sourcePoint" />
            <mxPoint x="370" y="320" as="targetPoint" />
          </mxGeometry>
        </mxCell>
        <mxCell id="vouigOJlTUPdxGMM5KaJ-71" value="&lt;font style=&quot;font-size: 10px;&quot;&gt;listed with&lt;/font&gt;" style="shape=rhombus;perimeter=rhombusPerimeter;whiteSpace=wrap;html=1;align=center;" vertex="1" parent="1">
          <mxGeometry x="220" y="278" width="60" height="55" as="geometry" />
        </mxCell>
        <mxCell id="vouigOJlTUPdxGMM5KaJ-72" value="" style="endArrow=none;html=1;rounded=0;exitX=0.5;exitY=1;exitDx=0;exitDy=0;entryX=0.5;entryY=0;entryDx=0;entryDy=0;" edge="1" source="vouigOJlTUPdxGMM5KaJ-71" parent="1" target="vouigOJlTUPdxGMM5KaJ-7">
          <mxGeometry relative="1" as="geometry">
            <mxPoint x="260" y="368" as="sourcePoint" />
            <mxPoint x="30" y="385" as="targetPoint" />
          </mxGeometry>
        </mxCell>
        <mxCell id="vouigOJlTUPdxGMM5KaJ-73" value="" style="endArrow=none;html=1;rounded=0;exitX=0.5;exitY=1;exitDx=0;exitDy=0;entryX=0.5;entryY=0;entryDx=0;entryDy=0;" edge="1" target="vouigOJlTUPdxGMM5KaJ-71" parent="1" source="vouigOJlTUPdxGMM5KaJ-5">
          <mxGeometry relative="1" as="geometry">
            <mxPoint x="30" y="225" as="sourcePoint" />
            <mxPoint x="260" y="368" as="targetPoint" />
          </mxGeometry>
        </mxCell>
        <mxCell id="vouigOJlTUPdxGMM5KaJ-79" value="" style="endArrow=none;html=1;rounded=0;entryX=0.5;entryY=0;entryDx=0;entryDy=0;" edge="1" parent="1">
          <mxGeometry relative="1" as="geometry">
            <mxPoint x="255" y="327" as="sourcePoint" />
            <mxPoint x="255.17000000000002" y="411" as="targetPoint" />
          </mxGeometry>
        </mxCell>
        <mxCell id="vouigOJlTUPdxGMM5KaJ-81" value="" style="endArrow=none;html=1;rounded=0;exitX=1;exitY=0.5;exitDx=0;exitDy=0;entryX=0;entryY=0.5;entryDx=0;entryDy=0;" edge="1" parent="1" source="vouigOJlTUPdxGMM5KaJ-7" target="vouigOJlTUPdxGMM5KaJ-85">
          <mxGeometry relative="1" as="geometry">
            <mxPoint x="400" y="330" as="sourcePoint" />
            <mxPoint x="410" y="410" as="targetPoint" />
          </mxGeometry>
        </mxCell>
        <mxCell id="vouigOJlTUPdxGMM5KaJ-82" value="" style="endArrow=none;html=1;rounded=0;entryX=0;entryY=0.5;entryDx=0;entryDy=0;exitX=1;exitY=0.5;exitDx=0;exitDy=0;" edge="1" parent="1" source="vouigOJlTUPdxGMM5KaJ-85" target="vouigOJlTUPdxGMM5KaJ-59">
          <mxGeometry relative="1" as="geometry">
            <mxPoint x="510" y="410" as="sourcePoint" />
            <mxPoint x="600" y="430" as="targetPoint" />
          </mxGeometry>
        </mxCell>
        <mxCell id="vouigOJlTUPdxGMM5KaJ-84" value="&lt;span style=&quot;border-bottom: 1px dotted&quot;&gt;Owner_ID&lt;/span&gt;" style="ellipse;whiteSpace=wrap;html=1;align=center;" vertex="1" parent="1">
          <mxGeometry x="660" y="370" width="90" height="20" as="geometry" />
        </mxCell>
        <mxCell id="vouigOJlTUPdxGMM5KaJ-85" value="has" style="shape=rhombus;double=1;perimeter=rhombusPerimeter;whiteSpace=wrap;html=1;align=center;" vertex="1" parent="1">
          <mxGeometry x="425" y="405" width="60" height="50" as="geometry" />
        </mxCell>
        <mxCell id="vouigOJlTUPdxGMM5KaJ-86" value="" style="endArrow=none;html=1;rounded=0;entryX=0;entryY=0.5;entryDx=0;entryDy=0;exitX=0.881;exitY=0.603;exitDx=0;exitDy=0;exitPerimeter=0;" edge="1" parent="1" source="vouigOJlTUPdxGMM5KaJ-85">
          <mxGeometry relative="1" as="geometry">
            <mxPoint x="485" y="435" as="sourcePoint" />
            <mxPoint x="600" y="435" as="targetPoint" />
          </mxGeometry>
        </mxCell>
        <mxCell id="vouigOJlTUPdxGMM5KaJ-89" value="&lt;font style=&quot;font-size: 10px;&quot;&gt;percent of owned&lt;/font&gt;" style="ellipse;whiteSpace=wrap;html=1;align=center;" vertex="1" parent="1">
          <mxGeometry x="412.5" y="370" width="85" height="20" as="geometry" />
        </mxCell>
        <mxCell id="vouigOJlTUPdxGMM5KaJ-90" value="" style="endArrow=none;html=1;rounded=0;exitX=0.5;exitY=0;exitDx=0;exitDy=0;entryX=0.5;entryY=1;entryDx=0;entryDy=0;" edge="1" parent="1" source="vouigOJlTUPdxGMM5KaJ-85" target="vouigOJlTUPdxGMM5KaJ-89">
          <mxGeometry relative="1" as="geometry">
            <mxPoint x="370" y="360" as="sourcePoint" />
            <mxPoint x="530" y="360" as="targetPoint" />
          </mxGeometry>
        </mxCell>
      </root>
    </mxGraphModel>
  </diagram>
</mxfile>
